# xmcd
#
# Track frame offsets:
#	150
#	11315
#	23909
#	40342
#	53574
#	71276
#	85623
#	97826
#	114956
#	125850
#
# Disc length: 1904 seconds
# Revision: 0
# Processed by: cddbd v1.5.2PL0 Copyright (c) Steve Scherf et al.
# Submitted via: dBpowerAMP V12.0
#
DISCID=6d076e0a
DTITLE=Various Artist - Texas Loves Its Alternative Country
DYEAR=2005
DGENRE=Country
TTITLE0=Reverend Horton Heat - Get Rhythm
TTITLE1=Two Tons Of Steel - Red Hot
TTITLE2=Trish Murphy - The Trouble With Trouble
TTITLE3=The Gourds - On Time
TTITLE4=Eleven Hundred Springs - Northside Blues
TTITLE5=Rodney Crowell - Ballad Of A Teenage Queen
TTITLE6=Jesse Dayton - Jesus Pick Me Up
TTITLE7=Charlie Robinson - Big City Blues
TTITLE8=Ian Moore - Bastard
TTITLE9=James McMurtry - Rex's Blues
EXTD=
EXTT0=
EXTT1=
EXTT2=
EXTT3=
EXTT4=
EXTT5=
EXTT6=
EXTT7=
EXTT8=
EXTT9=
PLAYORDER=
